<svg width="27" height="27" viewBox="0 0 27 27" fill="none" xmlns="http://www.w3.org/2000/svg">
<path id="Vector" d="M13.4792 11.084C12.0203 11.084 10.6487 11.6522 9.61699 12.6839C7.48762 14.8133 7.48762 18.2784 9.61699 20.4084C10.682 21.4731 12.0806 22.0053 13.4792 22.0053C14.8777 22.0053 16.2766 21.4731 17.3413 20.4081C18.373 19.3764 18.9412 18.0048 18.9412 16.5458C18.9412 15.0869 18.373 13.7153 17.3413 12.6839C16.3096 11.6522 14.938 11.084 13.4792 11.084ZM16.4512 19.5186C14.812 21.1575 12.1454 21.1575 10.5065 19.5189C8.8676 17.8797 8.8676 15.2126 10.5065 13.574C11.3006 12.7802 12.356 12.3428 13.4789 12.3428C14.6017 12.3428 15.6571 12.7799 16.4512 13.574C17.245 14.3678 17.6824 15.4235 17.6824 16.5464C17.6824 17.6693 17.2453 18.7245 16.4512 19.5186ZM15.2152 17.6531C15.2152 18.3885 14.755 19.0167 14.1082 19.2696V19.4694C14.1082 19.8168 13.8265 20.0985 13.4789 20.0985C13.1315 20.0985 12.8498 19.8168 12.8498 19.4694V19.2696C12.2027 19.017 11.7425 18.3885 11.7425 17.6531C11.7425 17.3057 12.0242 17.024 12.3719 17.024C12.7193 17.024 13.0013 17.3057 13.0013 17.6531C13.0013 17.9166 13.2155 18.1311 13.4789 18.1311C13.7422 18.1311 13.9564 17.9166 13.9564 17.6531C13.9564 17.4767 13.7647 17.3606 13.2245 17.1215C12.6344 16.8605 11.7425 16.4663 11.7425 15.4391C11.7425 14.7038 12.2027 14.0753 12.8498 13.8227V13.6229C12.8498 13.2755 13.1315 12.9938 13.4789 12.9938C13.8262 12.9938 14.1082 13.2755 14.1082 13.6229V13.8188C14.3353 13.9052 14.5432 14.0372 14.7181 14.2133C15.0415 14.5388 15.2182 14.9756 15.2149 15.443C15.2128 15.7892 14.9314 16.0682 14.5858 16.0682C14.5843 16.0682 14.5831 16.0682 14.5816 16.0682C14.2342 16.0661 13.9543 15.7826 13.9564 15.4352C13.9573 15.2687 13.8856 15.1613 13.825 15.1004C13.7359 15.0107 13.6129 14.9615 13.4786 14.9615C13.2152 14.9615 13.001 15.176 13.001 15.4394C13.001 15.6158 13.1927 15.7319 13.7329 15.971C14.3233 16.2317 15.2152 16.6259 15.2152 17.6531ZM24.6273 12.032C25.1664 12.032 25.605 11.5934 25.605 11.0546V9.80121H26.3706C26.718 9.80121 27 9.5195 27 9.1721V7.10059C27 6.86269 26.8659 6.64519 26.6535 6.53839L13.7824 0.0670504C13.6045 -0.0223501 13.3949 -0.0223501 13.217 0.0670504L0.346496 6.53839C0.134099 6.64519 0 6.86239 0 7.10029V9.1718C0 9.5192 0.281697 9.8009 0.629093 9.8009H1.39468V11.0543C1.39468 11.5931 1.83328 12.0317 2.37207 12.0317H2.52327V20.4594H2.37207C1.83298 20.4594 1.39468 20.898 1.39468 21.4368V22.6905H0.629093C0.281697 22.6905 0 22.9722 0 23.3196V26.3706C0 26.7183 0.281697 27 0.629093 27H26.3703C26.718 27 26.9997 26.7183 26.9997 26.3706V23.3196C26.9997 22.9722 26.718 22.6905 26.3703 22.6905H25.563V21.4368C25.563 20.898 25.1244 20.4594 24.5856 20.4594H24.4347V12.032H24.6273ZM24.3462 10.7735H23.8053H21.0883H20.6308V9.8009H24.3465L24.3462 10.7735ZM1.25819 7.48849L13.4999 1.33336L25.7412 7.48819V8.5427H24.9756H20.0014H6.99832H2.02408H1.25819V7.48849ZM6.36893 9.80121V10.7738H5.86944H3.15237H2.65317V9.80121H6.36893ZM3.78176 12.032H5.24034V20.4597H3.78176V12.032ZM2.65347 21.7179H3.15266H5.86973H6.36923V22.6905H2.65347V21.7179ZM25.7412 25.7415H1.25819V23.949H25.7412V25.7415ZM7.62772 22.6905V21.4368C7.62772 20.898 7.18912 20.4594 6.65003 20.4594H6.49883V12.032H6.65003C7.18912 12.032 7.62772 11.5934 7.62772 11.0546V9.80121H19.3723V11.0546C19.3723 11.5934 19.8109 12.032 20.3497 12.032H20.4592V20.4597H20.308C19.7689 20.4597 19.3306 20.8983 19.3306 21.4371V22.6908L7.62772 22.6905ZM24.3045 21.7179V22.6905H20.5891V21.7179H21.0883H23.8053H24.3045ZM23.1762 20.4594H21.7177V12.032H23.1762V20.4594Z" fill="black"/>
</svg>
