<svg width="28" height="28" viewBox="0 0 28 28" fill="none" xmlns="http://www.w3.org/2000/svg">
<path d="M27.641 5.85204C27.2329 5.3261 26.5332 5.09234 25.6003 5.09234C26.3583 3.98202 27.058 2.52108 26.3 1.70295C26.1251 1.52763 25.8335 1.35232 25.3671 1.35232C24.7257 1.35232 23.8511 1.70295 22.9182 2.34576C22.9182 1.58607 22.7433 0.943254 22.3934 0.534189C22.0436 0.0666855 21.4605 -0.108628 20.8191 0.0666855C19.2449 0.475751 17.7872 2.93014 17.2624 4.97547C17.2041 5.09234 17.2041 5.20922 17.2041 5.3261C16.9709 5.3261 16.796 5.3261 16.5628 5.3261C15.8631 5.3261 15.1051 5.44297 14.4054 5.61829C14.3471 5.61829 14.2888 5.61829 14.2888 5.67672C12.8311 6.08579 11.4318 6.78704 10.0907 7.83893H10.0324C9.97409 7.83893 9.97409 7.89736 9.97409 7.89736C9.56595 8.18955 9.21611 8.54018 8.86627 8.89081C8.04997 9.70894 7.35029 10.6439 6.76722 11.579C6.76722 11.6374 6.70892 11.6374 6.70892 11.6958C5.6594 13.5658 5.19294 15.4943 5.36786 17.2474C5.25125 17.2474 5.13464 17.3059 4.95972 17.3059C2.86067 17.8318 0.470098 19.3512 0.0619509 20.8706C-0.112969 21.5134 0.120258 21.9225 0.295178 22.1562C0.703325 22.6822 1.40301 22.9159 2.33591 22.9159C1.57793 24.0262 0.878245 25.4872 1.63623 26.3053C1.81115 26.4806 2.10269 26.6559 2.56914 26.6559C3.32713 26.6559 4.26003 26.13 5.01802 25.6625C5.01802 26.4222 5.19294 27.065 5.54278 27.4741C5.83432 27.8247 6.24246 28 6.65061 28C6.76722 28 6.94214 28 7.11706 27.9416C8.63304 27.5325 10.149 25.1365 10.6738 23.0328C10.7321 22.9159 10.7321 22.799 10.7321 22.6822C10.9653 22.6822 11.1402 22.6822 11.3735 22.6822C12.0731 22.6822 12.8311 22.5653 13.5891 22.39C13.6474 22.39 13.7057 22.39 13.764 22.3315C15.1634 21.9225 16.6211 21.2212 17.9038 20.2278H17.9621C18.0204 20.2278 18.0204 20.1693 18.0204 20.1693C18.4286 19.8771 18.7784 19.5265 19.1282 19.1759C19.9445 18.3577 20.6442 17.4227 21.2273 16.4877C21.2273 16.4293 21.2856 16.4293 21.2856 16.3709C22.3351 14.5008 22.8016 12.5724 22.685 10.8193C22.8016 10.8193 22.9182 10.7608 23.0931 10.7608C25.4837 10.118 27.641 8.59862 27.9909 7.19611C28.0492 6.55329 27.8159 6.08579 27.641 5.85204ZM9.62425 9.70894C9.79917 9.53363 9.97409 9.35831 10.2073 9.183L16.796 19.5849C15.8048 20.2862 14.7552 20.8121 13.7057 21.1628L7.87505 11.9296C8.34151 11.1699 8.92457 10.4102 9.62425 9.70894ZM9.50764 22.799C8.98288 24.9028 7.64182 26.6559 6.76722 26.8897C6.5923 26.9481 6.534 26.9481 6.41738 26.7728C6.18416 26.4806 6.06754 25.7794 6.30077 24.4937C6.35908 24.26 6.24246 23.9678 6.00924 23.8509C5.89262 23.7925 5.83432 23.7925 5.7177 23.7925C5.60109 23.7925 5.42617 23.8509 5.36786 23.9093C4.08511 25.0197 3.03559 25.4872 2.56914 25.4872C2.51083 25.4872 2.51083 25.4872 2.51083 25.4872C2.39422 25.195 2.80237 24.0847 4.08511 22.5653C4.26003 22.39 4.26003 22.0978 4.14342 21.864C3.9685 21.7471 3.73527 21.6303 3.44374 21.6887C3.03559 21.8056 2.62745 21.8056 2.27761 21.8056C1.63623 21.8056 1.28639 21.6303 1.16978 21.5134C1.16978 21.455 1.11147 21.3965 1.16978 21.2212C1.40301 20.3446 3.0939 19.059 5.25125 18.4746C5.36786 18.4746 5.42617 18.4162 5.54278 18.4162C5.60109 18.5331 5.60109 18.7084 5.6594 18.8253C5.95093 19.6434 6.35908 20.4031 7.00045 21.0459C7.70013 21.7471 8.63304 22.2731 9.62425 22.5068C9.56595 22.6237 9.50764 22.6822 9.50764 22.799ZM7.75844 20.2278C6.12585 18.5915 6.00924 15.7865 7.23368 13.1568L12.4813 21.5134C12.0731 21.5718 11.7233 21.6303 11.3151 21.6303C9.85748 21.5718 8.63304 21.1043 7.75844 20.2278ZM18.2536 18.3577C18.0787 18.5331 17.9038 18.7084 17.6706 18.8837L11.0819 8.48174C12.0731 7.78049 13.1227 7.25455 14.1722 6.90392L20.0028 16.1371C19.5364 16.8968 18.9533 17.6565 18.2536 18.3577ZM20.6442 14.9099L15.3966 6.55329C15.8048 6.49485 16.1546 6.43642 16.5628 6.43642C18.0204 6.43642 19.2449 6.90392 20.1195 7.78049C21.752 9.47519 21.8687 12.2802 20.6442 14.9099ZM26.7664 6.84548C26.5332 7.72205 24.8423 9.00768 22.7433 9.59206C22.6266 9.59206 22.5683 9.6505 22.4517 9.6505C22.4517 9.59206 22.3934 9.53363 22.3934 9.47519C22.1019 8.54018 21.6354 7.72205 20.9941 7.02079C20.2944 6.31954 19.3615 5.7936 18.3703 5.55985C18.3703 5.44297 18.4286 5.38453 18.4286 5.26766C19.0116 3.16389 20.2944 1.41076 21.169 1.17701C21.3439 1.11857 21.4022 1.11857 21.5188 1.29388C21.7521 1.58607 21.8687 2.28733 21.6354 3.57296C21.5771 3.80671 21.6937 4.0989 21.927 4.21578C22.1602 4.33265 22.3934 4.33265 22.6267 4.15734C23.9094 3.04702 24.9589 2.57951 25.4837 2.57951C25.542 2.57951 25.542 2.57951 25.542 2.57951C25.6003 2.81327 25.3671 3.86515 23.9677 5.50141C23.7928 5.67672 23.7928 5.96891 23.9094 6.20266C24.026 6.43642 24.3175 6.55329 24.5508 6.49485C24.9589 6.37798 25.3671 6.37798 25.7169 6.37798C26.3583 6.37798 26.7081 6.55329 26.8247 6.67017C26.7664 6.55329 26.8247 6.67017 26.7664 6.84548Z" fill="black"/>
</svg>
