<svg width="27" height="27" viewBox="0 0 27 27" fill="none" xmlns="http://www.w3.org/2000/svg">
<g id="Group">
<path id="Vector" d="M26.9953 11.4981L26.5045 4.60849C26.494 4.38207 26.4075 4.16888 26.2629 4.01295C26.1183 3.85702 25.9266 3.77025 25.7274 3.77056L19.7148 3.16539C19.4935 3.15227 19.2764 3.23697 19.1087 3.40179C18.941 3.56662 18.8358 3.79881 18.815 4.04987C18.8037 4.16978 18.8141 4.29104 18.8455 4.4062C18.8769 4.52137 18.9287 4.62801 18.9976 4.71956C19.0666 4.81112 19.1513 4.88566 19.2465 4.93861C19.3417 4.99156 19.4454 5.02179 19.5512 5.02746L23.8459 5.44642L16.7699 13.4999L13.2932 9.58953C13.2204 9.49922 13.1319 9.42712 13.0334 9.3778C12.9348 9.32848 12.8283 9.30301 12.7206 9.30301C12.6129 9.30301 12.5064 9.32848 12.4078 9.3778C12.3093 9.42712 12.2208 9.49922 12.148 9.58953L4.49934 18.2481C4.34682 18.43 4.26172 18.6717 4.26172 18.9231C4.26172 19.1746 4.34682 19.4163 4.49934 19.5981C4.57214 19.6884 4.66063 19.7605 4.7592 19.8099C4.85778 19.8592 4.96428 19.8847 5.07196 19.8847C5.17964 19.8847 5.28615 19.8592 5.38472 19.8099C5.4833 19.7605 5.57179 19.6884 5.64459 19.5981L12.7206 11.5447L16.1972 15.5016C16.3547 15.6619 16.5586 15.7505 16.7699 15.7505C16.9811 15.7505 17.185 15.6619 17.3425 15.5016L24.9911 6.74987L25.3592 11.6378C25.3796 11.8683 25.4747 12.0818 25.6259 12.2367C25.7772 12.3917 25.9738 12.4769 26.1773 12.4757H26.2591C26.3649 12.4701 26.4686 12.4398 26.5638 12.3869C26.659 12.3339 26.7437 12.2594 26.8126 12.1678C26.8816 12.0763 26.9334 11.9696 26.9648 11.8545C26.9962 11.7393 27.0066 11.6181 26.9953 11.4981Z" fill="black"/>
<path id="Vector_2" d="M0.818035 0C0.601079 0 0.393009 0.098091 0.239597 0.272694C0.0861858 0.447297 0 0.684109 0 0.931035V23.7414C0 24.6056 0.30165 25.4345 0.83859 26.0456C1.37553 26.6567 2.10378 27 2.86312 27H24.9501C25.167 27 25.3751 26.9019 25.5285 26.7273C25.6819 26.5527 25.7681 26.3159 25.7681 26.069C25.7681 25.822 25.6819 25.5852 25.5285 25.4106C25.3751 25.236 25.167 25.1379 24.9501 25.1379H2.86312C2.70045 25.1444 2.53833 25.1128 2.38687 25.0449C2.23542 24.977 2.09786 24.8744 1.98275 24.7434C1.86765 24.6124 1.77747 24.4558 1.71783 24.2834C1.65819 24.111 1.63036 23.9265 1.63607 23.7414V0.931035C1.63607 0.684109 1.54988 0.447297 1.39647 0.272694C1.24306 0.098091 1.03499 0 0.818035 0Z" fill="black"/>
</g>
</svg>
