<svg width="28" height="22" viewBox="0 0 28 22" fill="none" xmlns="http://www.w3.org/2000/svg">
<path id="Vector" d="M5.25 10.4762H12.25V11.5238H5.25V10.4762ZM5.25 13.619H10.5V12.5714H5.25V13.619ZM5.25 9.42857H12.25V8.38095H5.25V9.42857ZM18.1562 10.5286H18.5938V9.58571H18.1562V10.5286ZM18.1562 16.3429H18.5938V15.4H18.1562V16.3429ZM18.1562 6.65238H18.5938V5.70953H18.1562V6.65238ZM18.1562 8.59048H18.5938V7.64762H18.1562V8.59048ZM18.1562 14.4048H18.5938V13.4619H18.1562V14.4048ZM18.1562 12.4667H18.5938V11.5238H18.1562V12.4667ZM28 3.14286V18.8571C28 20.5857 26.8188 22 25.375 22H21C20.5187 22 20.125 21.5286 20.125 20.9524C20.125 19.8 19.3375 18.8571 18.375 18.8571C17.4125 18.8571 16.625 19.8 16.625 20.9524C16.625 21.5286 16.2313 22 15.75 22H2.625C1.18125 22 0 20.5857 0 18.8571V3.14286C0 1.41429 1.18125 0 2.625 0H15.75C16.2313 0 16.625 0.471429 16.625 1.04762C16.625 2.2 17.4125 3.14286 18.375 3.14286C19.3375 3.14286 20.125 2.2 20.125 1.04762C20.125 0.471429 20.5187 0 21 0H25.375C26.8188 0 28 1.41429 28 3.14286ZM26.6875 18.8571V3.14286C26.6875 2.25238 26.1187 1.57143 25.375 1.57143H21.3938C20.8342 5.86091 15.7859 5.68438 15.3558 1.57143H2.625C1.88125 1.57143 1.3125 2.25238 1.3125 3.14286V18.8571C1.3125 19.7476 1.88125 20.4286 2.625 20.4286H15.3562C15.9158 16.1391 20.9641 16.3156 21.3942 20.4286H25.375C26.1187 20.4286 26.6875 19.7476 26.6875 18.8571Z" fill="black"/>
</svg>
