<svg width="31" height="26" viewBox="0 0 31 26" fill="none" xmlns="http://www.w3.org/2000/svg">
<path d="M12.0312 8.9585H4.53125V10.6251H12.0312V8.9585Z" fill="white"/>
<path d="M29.3713 25.6245L30.7812 24.4495L26.0912 20.5412C27.1882 19.3766 27.7835 17.9385 27.7812 16.458C27.7795 14.8353 27.0675 13.2688 25.7789 12.0522C24.4902 10.8357 22.7133 10.0526 20.7812 9.84973V4.79147C20.7812 4.57046 20.6759 4.3585 20.4884 4.20223C20.3008 4.04595 20.0465 3.95815 19.7812 3.95815H17.5613L16.7812 1.25819C16.7265 1.0733 16.5974 0.909607 16.4155 0.794374C16.2335 0.679142 16.0097 0.619319 15.7812 0.624865H5.78125C5.55282 0.619319 5.32899 0.679142 5.14704 0.794374C4.9651 0.909607 4.836 1.0733 4.78125 1.25819L4.00125 3.95815H1.78125C1.51603 3.95815 1.26168 4.04595 1.07414 4.20223C0.886607 4.3585 0.78125 4.57046 0.78125 4.79147V24.7912C0.78125 25.0122 0.886607 25.2242 1.07414 25.3804C1.26168 25.5367 1.51603 25.6245 1.78125 25.6245H19.7812C20.0465 25.6245 20.3008 25.5367 20.4884 25.3804C20.6759 25.2242 20.7812 25.0122 20.7812 24.7912V23.0662C22.2037 22.9178 23.5513 22.4514 24.6812 21.7162L29.3713 25.6245ZM6.56125 2.29151H15.0013L15.5013 3.95815H6.06125L6.56125 2.29151ZM2.78125 23.9579V5.62479H18.7812V9.84973C17.3712 9.99829 16.0341 10.4572 14.9075 11.1793C13.7809 11.9013 12.9054 12.8605 12.3713 13.958H4.78125V15.6247H11.8512C11.8077 15.901 11.7843 16.1793 11.7812 16.458C11.7807 17.3154 11.9811 18.1646 12.3713 18.9579H4.78125V20.6246H13.5413C14.8413 21.9745 16.7205 22.8501 18.7812 23.0662V23.9579H2.78125ZM19.7812 21.4579C18.5946 21.4579 17.4345 21.1647 16.4478 20.6153C15.4611 20.0659 14.6921 19.285 14.238 18.3714C13.7838 17.4577 13.665 16.4524 13.8965 15.4825C14.1281 14.5126 14.6995 13.6217 15.5386 12.9225C16.3777 12.2232 17.4468 11.747 18.6107 11.5541C19.7746 11.3612 20.981 11.4602 22.0774 11.8386C23.1737 12.2171 24.1108 12.8579 24.7701 13.6802C25.4294 14.5024 25.7812 15.4691 25.7812 16.458C25.7812 17.784 25.1491 19.0558 24.0239 19.9935C22.8987 20.9311 21.3725 21.4579 19.7812 21.4579Z" fill="white"/>
<path d="M17.7965 16.6754L16.2496 15.3004L14.9277 16.4587L17.1309 18.417C17.2185 18.4943 17.3224 18.5554 17.4366 18.5968C17.5508 18.6383 17.6731 18.6593 17.7965 18.6587C18.0424 18.6578 18.2781 18.571 18.4527 18.417L22.259 15.0837L20.9371 13.8921L17.7965 16.6754Z" fill="white"/>
</svg>
