<svg width="current" height="current" viewBox="0 0 291 301" fill="current" xmlns="http://www.w3.org/2000/svg">
<path d="M163.04 38.76C163.4 42.41 160.73 45.67 157.08 46.02C153.43 46.38 150.17 43.71 149.82 40.06C149.74 39.23 149.39 38.45 148.86 37.83C148.33 37.21 147.6 36.74 146.76 36.52C145.95 36.3 145.08 36.35 144.31 36.63L144 36.73C143.37 37.02 142.8 37.49 142.36 38.1L142.15 38.38C141.77 39.01 141.58 39.71 141.56 40.41C141.55 41.23 141.78 42.07 142.26 42.8C142.48 43.13 142.76 43.42 143.2 43.7C144.1 44.24 145.48 44.79 147.54 45.4C150.78 46.35 153.18 47.37 155.06 48.52L155.4 48.74C157.52 50.1 158.98 51.63 160.16 53.42C162.16 56.41 163.13 59.89 163.07 63.35C163.01 66.81 161.91 70.26 159.8 73.2C157.9 75.89 155.28 77.91 152.34 79.13V80.91C152.34 84.59 149.35 87.58 145.67 87.58C141.99 87.58 139 84.59 139 80.91V79.17C136.42 78.1 134.16 76.44 132.38 74.36C130.13 71.73 128.66 68.41 128.3 64.79C127.94 61.14 130.61 57.88 134.26 57.53C137.91 57.17 141.17 59.84 141.52 63.49C141.6 64.32 141.95 65.1 142.48 65.71C143.01 66.33 143.74 66.8 144.58 67.02C145.39 67.24 146.26 67.19 147.03 66.91C147.78 66.67 148.46 66.15 148.98 65.43C149.5 64.74 149.77 63.93 149.78 63.12C149.79 62.31 149.56 61.46 149.08 60.73C148.91 60.43 148.66 60.18 148.29 59.93L148.14 59.84C147.24 59.29 145.86 58.73 143.8 58.13C140.55 57.17 138.16 56.16 136.28 55.01C133.93 53.56 132.4 51.97 131.17 50.11C129.18 47.11 128.22 43.63 128.28 40.17C128.34 36.92 129.3 33.69 131.16 30.88L131.53 30.31C133.45 27.63 136.07 25.61 139.01 24.39V22.61C139.01 18.93 142 15.94 145.68 15.94C149.36 15.94 152.35 18.93 152.35 22.61V24.35C154.93 25.42 157.19 27.08 158.97 29.16C161.22 31.8 162.69 35.12 163.05 38.73L163.04 38.76ZM145.67 196.23C155.88 196.23 165.27 198.49 172.17 202.14C180.36 206.47 185.43 212.9 185.43 220.4C185.43 227.89 180.36 234.33 172.17 238.66C165.27 242.31 155.89 244.57 145.67 244.57C135.46 244.57 126.07 242.31 119.17 238.66C110.98 234.33 105.91 227.9 105.91 220.4C105.91 212.91 110.98 206.47 119.17 202.14C126.07 198.49 135.45 196.23 145.67 196.23ZM165.97 213.91C160.9 211.23 153.73 209.57 145.67 209.57C137.61 209.57 130.44 211.23 125.37 213.91C121.59 215.91 119.25 218.23 119.25 220.39C119.25 222.56 121.59 224.88 125.37 226.87C130.44 229.55 137.61 231.21 145.67 231.21C153.73 231.21 160.9 229.55 165.97 226.87C169.75 224.87 172.09 222.55 172.09 220.39C172.09 218.22 169.75 215.9 165.97 213.91ZM30.1501 116.91C26.4901 113.5 22.7201 110.23 18.8401 107.12C13.9901 103.22 8.9001 99.51 3.6201 96.03C0.560101 94 -0.2799 89.87 1.7501 86.81C2.0301 86.39 2.3501 86.01 2.6901 85.68C12.7101 75.29 23.5601 69.53 35.2401 68.43C46.2001 67.39 57.5901 70.51 69.3701 77.79C77.6601 72.56 86.6701 68.17 96.2401 64.74C95.1601 60.61 94.5901 56.27 94.5901 51.8C94.5601 37.69 100.29 24.91 109.53 15.66L109.91 15.31C119.13 6.27995 131.76 0.709954 145.67 0.689954C159.78 0.679954 172.56 6.40995 181.81 15.65C191.06 24.9 196.79 37.68 196.79 51.79C196.78 56.27 196.2 60.61 195.11 64.75C204.67 68.18 213.68 72.57 221.97 77.8C233.75 70.52 245.14 67.4 256.11 68.44C267.78 69.54 278.64 75.3 288.66 85.69C289.01 86.02 289.33 86.4 289.6 86.82C291.63 89.88 290.79 94.01 287.73 96.04C282.45 99.52 277.36 103.23 272.51 107.13C268.63 110.25 264.85 113.52 261.2 116.92C271.3 133.33 277.04 152.13 277.04 172.1C277.04 186.69 273.96 200.69 268.34 213.6C262.95 226 255.2 237.37 245.6 247.29L248.3 291.38C248.51 295.05 245.71 298.2 242.05 298.41L205.48 300.65C201.9 300.86 198.8 298.19 198.47 294.64L196.05 279.1C189.51 281.5 182.68 283.45 175.64 284.9C165.95 286.9 155.92 287.95 145.69 287.95C135.47 287.95 125.43 286.89 115.75 284.9C108.7 283.45 101.88 281.5 95.3301 279.1L92.8501 295.02C92.3201 298.43 89.2801 300.83 85.9001 300.63L49.3301 298.4C45.6601 298.19 42.8701 295.03 43.0801 291.37L45.7801 247.29C36.1801 237.38 28.4301 225.99 23.0401 213.6C17.4201 200.68 14.3401 186.68 14.3401 172.1C14.3401 152.13 20.0801 133.34 30.1801 116.92L30.1501 116.91ZM57.4101 86.29C50.0201 82.58 43.0501 81.03 36.4901 81.65C30.1201 82.25 23.9301 84.95 17.9201 89.72C21.0601 91.97 24.1401 94.32 27.1701 96.75C30.8301 99.69 34.4001 102.74 37.8501 105.9L38.7301 104.79C44.1901 98.05 50.4601 91.84 57.4101 86.28V86.29ZM253.49 105.91C256.94 102.75 260.51 99.69 264.17 96.76C267.2 94.33 270.28 91.98 273.42 89.73C267.42 84.95 261.22 82.26 254.85 81.66C248.29 81.04 241.31 82.59 233.92 86.3C240.86 91.86 247.13 98.07 252.6 104.81L253.49 105.92V105.91ZM101.25 77.06C80.1001 84.53 62.0101 97.18 49.0401 113.19C35.5701 129.82 27.6401 150.16 27.6401 172.09C27.6401 184.86 30.3201 197.06 35.2001 208.28C40.2801 219.96 47.7601 230.64 57.0901 239.84C58.5001 241.15 59.3401 243.05 59.2201 245.12L56.7401 285.53L80.6401 286.99L83.4201 269.12C83.4901 268.46 83.6601 267.81 83.9401 267.17C85.4001 263.81 89.3301 262.27 92.6901 263.73C100.78 267.27 109.39 270.03 118.38 271.87C127.07 273.66 136.2 274.61 145.67 274.61C155.14 274.61 164.28 273.66 172.97 271.87C181.96 270.02 190.57 267.26 198.66 263.73C199.18 263.51 199.72 263.35 200.3 263.26C203.92 262.7 207.32 265.19 207.88 268.81L210.71 287L234.61 285.54L232.13 245.12C232.03 243.27 232.69 241.39 234.11 239.99C243.52 230.75 251.04 220.03 256.15 208.29C261.03 197.08 263.7 184.88 263.7 172.1C263.7 150.17 255.77 129.84 242.3 113.2C229.34 97.19 211.24 84.55 190.1 77.07C187.83 81.06 185.04 84.71 181.82 87.92C172.57 97.17 159.79 102.89 145.68 102.89C131.57 102.89 118.79 97.16 109.55 87.92C106.33 84.7 103.54 81.05 101.27 77.06H101.25ZM172.38 25.07C165.55 18.24 156.1 14.01 145.67 14.01C135.39 13.98 126.06 18.09 119.25 24.76L118.95 25.07C112.12 31.9 107.89 41.35 107.89 51.78C107.86 62.19 112.11 71.65 118.95 78.49C125.78 85.32 135.22 89.55 145.65 89.55C156.09 89.55 165.54 85.32 172.37 78.49C179.22 71.64 183.46 62.18 183.46 51.78C183.43 41.35 179.2 31.9 172.37 25.07H172.38Z" fill="current"/>
<path fill-rule="evenodd" clip-rule="evenodd" d="M93.1802 146.13C99.2202 146.13 104.12 151.03 104.12 157.07C104.12 163.11 99.2202 168.01 93.1802 168.01C87.1402 168.01 82.2402 163.11 82.2402 157.07C82.2402 151.03 87.1402 146.13 93.1802 146.13ZM198.15 146.13C204.19 146.13 209.09 151.03 209.09 157.07C209.09 163.11 204.19 168.01 198.15 168.01C192.11 168.01 187.21 163.11 187.21 157.07C187.21 151.03 192.11 146.13 198.15 146.13Z" fill="current"/>
</svg>
