<svg width="30" height="30" viewBox="0 0 88 96" fill="current" xmlns="http://www.w3.org/2000/svg">
<path fill-rule="evenodd" clip-rule="evenodd" d="M44 4.91C44.8532 4.90626 45.6977 5.08244 46.4782 5.42706C47.2588 5.77167 47.9579 6.27697 48.53 6.91L50 8.57H60.56L58.85 13.42H29.14L27.43 8.57H38L39.47 6.94C40.0421 6.30697 40.7412 5.80167 41.5218 5.45706C42.3023 5.11244 43.1468 4.93626 44 4.94V4.91ZM44 0C42.4536 0.0016732 40.9249 0.329388 39.5137 0.96176C38.1025 1.59413 36.8405 2.51695 35.81 3.67H25.67C25.0741 3.67096 24.4875 3.81738 23.9611 4.09655C23.4347 4.37573 22.9844 4.77921 22.6493 5.27194C22.3143 5.76468 22.1046 6.33177 22.0385 6.92395C21.9724 7.51614 22.0518 8.11551 22.27 8.67L25.67 18.31H62.33L65.72 8.67C65.9379 8.11629 66.0174 7.51782 65.9518 6.92643C65.8862 6.33503 65.6774 5.76855 65.3435 5.27606C65.0096 4.78356 64.5606 4.3799 64.0355 4.10004C63.5104 3.82019 62.925 3.67258 62.33 3.67H52.19C51.1595 2.51695 49.8975 1.59413 48.4863 0.96176C47.0751 0.329388 45.5464 0.0016732 44 0ZM60.43 30.26C65.43 34.96 83.08 53.03 83.08 73.01C83.08 79.66 80.37 83.76 78.08 86.01C75.8752 88.3737 72.8629 89.8228 69.64 90.07H18.34C15.1166 89.8247 12.1036 88.3753 9.9 86.01C7.63 83.74 4.9 79.64 4.9 73.01C4.9 53.1 22.58 35.01 27.56 30.26H60.43ZM62.33 25.35H25.67C25.67 25.35 0 47.35 0 73.01C0 87.67 11 95.01 18.33 95.01H69.66C77 95 88 87.67 88 73.01C88 47.35 62.34 25.35 62.34 25.35H62.33ZM48.69 57.69C50.6158 58.0521 52.4428 58.819 54.05 59.94C54.9817 60.7017 55.7194 61.6735 56.2027 62.7756C56.6859 63.8777 56.9009 65.0787 56.83 66.28C56.852 67.6305 56.5674 68.9685 55.9975 70.1931C55.4276 71.4177 54.5874 72.4971 53.54 73.35C51.5847 74.9151 49.1985 75.8465 46.7 76.02V79.66H41.44V75.99C38.9657 75.776 36.6003 74.8755 34.61 73.39C33.4617 72.4923 32.5442 71.3335 31.9337 70.0099C31.3232 68.6864 31.0374 67.2362 31.1 65.78H37.26C37.3547 66.9281 37.7629 68.0281 38.44 68.96C39.2256 69.8323 40.2827 70.4137 41.44 70.61V62.17C38.2 61.45 35.96 60.67 34.74 59.82C32.6467 58.3867 31.6 56.1467 31.6 53.1C31.5725 51.7861 31.8331 50.4821 32.3635 49.2797C32.8939 48.0773 33.6812 47.0056 34.67 46.14C36.586 44.5583 38.959 43.6329 41.44 43.5V40.5H46.69V43.7C48.6662 44.0482 50.535 44.8491 52.15 46.04C53.3156 46.9188 54.2567 48.061 54.8963 49.3732C55.5359 50.6855 55.8559 52.1304 55.83 53.59H49.6C49.6003 52.7547 49.3649 51.9362 48.9209 51.2286C48.4769 50.5211 47.8423 49.9531 47.09 49.59L46.69 49.4V57.22L48.69 57.69ZM37.9893 54.1072C38.2594 54.5478 38.6524 54.8999 39.12 55.12C39.8596 55.4832 40.6379 55.7617 41.44 55.95V48.95C40.6215 49.0781 39.8384 49.3743 39.14 49.82C38.6575 50.1125 38.2609 50.5275 37.9904 51.0227C37.72 51.5179 37.5853 52.0759 37.6 52.64C37.5839 53.1566 37.7193 53.6666 37.9893 54.1072ZM46.7 70.65C47.072 70.5792 47.4394 70.4857 47.8 70.37C48.6059 70.1775 49.321 69.7137 49.8254 69.0564C50.3298 68.399 50.5927 67.5882 50.57 66.76C50.5828 66.278 50.4638 65.8017 50.2259 65.3823C49.9881 64.9629 49.6403 64.6164 49.22 64.38C48.4256 63.9416 47.5789 63.6055 46.7 63.38V70.65Z" fill="current"/>
</svg>
