<svg width="28" height="26" viewBox="0 0 28 26" fill="none" xmlns="http://www.w3.org/2000/svg">
<g id="Group">
<g id="Group_2">
<path id="Vector" d="M16.6005 26H15.4249C14.7481 26 14.1781 25.3601 14.1781 24.6002V24.3203C13.5725 24.3603 13.0025 24.4003 12.3969 24.3603V24.6002C12.3969 25.3601 11.827 26 11.1501 26H7.37404C6.6972 26 6.12722 25.3601 6.12722 24.6002V23.5604C6.12722 23.3204 6.02035 22.1606 5.05852 21.1608C5.0229 21.1208 4.95165 21.0808 4.91603 21.0008L4.88041 20.9608C3.59796 19.681 2.67176 18.1213 2.10178 16.4416H1.74555C0.783718 16.4416 0 15.5617 0 14.4819V11.3224C0 10.2426 0.783718 9.36275 1.74555 9.36275H2.1374C2.743 7.60304 3.74046 6.0433 5.09415 4.76351C5.30789 3.96364 5.12977 3.12379 4.66667 2.24393C4.38168 1.76401 4.38168 1.1641 4.66667 0.68418C4.95166 0.204259 5.41476 -0.0356936 5.91349 0.0042998C7.80153 0.284253 8.94148 1.24409 9.5827 2.12394C10.7226 1.764 11.8626 1.60404 13.0738 1.60404C18.0611 1.60404 22.4427 4.76351 24.0102 9.40275C24.1527 9.76269 24.2595 10.1626 24.3308 10.5626C24.402 10.8025 24.4377 11.0425 24.4733 11.3224C24.5445 11.6824 24.2952 12.0423 23.9746 12.1223C23.6539 12.2023 23.3333 11.9223 23.2621 11.5624C23.2265 11.3624 23.1908 11.1225 23.1552 10.9225C23.084 10.6025 22.9771 10.2426 22.8702 9.92265C21.4809 5.76334 17.5267 3.0038 13.0738 3.0038C11.8626 3.0038 10.687 3.20377 9.54707 3.6037C9.29771 3.68369 9.01272 3.6037 8.87023 3.32375C8.40713 2.56387 7.51654 1.64403 5.80662 1.40407C5.80662 1.40407 5.77099 1.40407 5.73537 1.44406C5.69975 1.48406 5.73537 1.52404 5.73537 1.52404C6.41222 2.72385 6.62595 4.00364 6.30534 5.16344C6.30534 5.16344 6.30534 5.16345 6.30534 5.20344C6.30534 5.40341 6.2341 5.60337 6.0916 5.72335C4.70229 6.96314 3.70483 8.56288 3.20611 10.3226C3.13486 10.6025 2.8855 10.8025 2.63614 10.8025H1.78117C1.49618 10.8025 1.24682 11.0825 1.24682 11.4024V14.5619C1.24682 14.8818 1.49618 15.1618 1.78117 15.1618H2.56488C2.84987 15.1618 3.06361 15.3618 3.13486 15.6417C3.59797 17.2814 4.48855 18.8412 5.73537 20.081C5.77099 20.121 5.84224 20.161 5.87786 20.201C7.19593 21.5607 7.33842 23.1605 7.37404 23.6004V24.6402H11.1501V23.6404C11.1501 23.4404 11.2214 23.2404 11.3639 23.1205C11.5064 23.0005 11.6489 22.9205 11.827 22.9605C12.7888 23.0805 13.7506 23.0405 14.6768 22.9205C14.855 22.8805 15.0331 22.9605 15.1756 23.0805C15.3181 23.2005 15.3893 23.4004 15.3893 23.6004V24.6402H16.5649C16.8855 24.6402 17.1705 24.9602 17.1705 25.3201C17.2061 25.68 16.9211 26 16.6005 26ZM26.4682 16.8015V18.4812H27.3944C27.715 18.4812 28 18.8012 28 19.1611V25.2801C28 25.6401 27.715 25.96 27.3944 25.96H18.916C18.5954 25.96 18.3104 25.6401 18.3104 25.2801V19.1611C18.3104 18.8012 18.5954 18.4812 18.916 18.4812H19.8422V16.8015C19.8422 14.7619 21.3028 13.1221 23.1196 13.1221C24.9364 13.1221 26.4682 14.7619 26.4682 16.8015ZM21.0891 18.4812H25.2214V16.8015C25.2214 15.5217 24.2952 14.4819 23.1552 14.4819C22.0153 14.4819 21.0891 15.5217 21.0891 16.8015V18.4812ZM19.5573 19.881V24.6402H26.7888V19.881H19.5573Z" fill="black"/>
</g>
</g>
</svg>
