<svg width="96" height="96" viewBox="0 0 96 96" fill="current" xmlns="http://www.w3.org/2000/svg">
<path d="M48 95.5C21.8092 95.5 0.5 74.1908 0.5 48C0.5 21.8092 21.8092 0.5 48 0.5C74.1908 0.5 95.5 21.8092 95.5 48C95.5 74.1908 74.1908 95.5 48 95.5ZM48 7.80769C25.8347 7.80769 7.80769 25.8356 7.80769 48C7.80769 70.1569 25.8356 88.1923 48 88.1923C70.1569 88.1923 88.1923 70.1571 88.1923 48C88.1923 25.8347 70.1571 7.80769 48 7.80769Z" fill="current"/>
<path d="M69.9229 51.6534H26.0767C24.0597 51.6534 22.4229 50.0165 22.4229 47.9995C22.4229 45.9826 24.0597 44.3457 26.0767 44.3457H69.9229C71.9398 44.3457 73.5767 45.9826 73.5767 47.9995C73.5767 50.0165 71.9398 51.6534 69.9229 51.6534Z" fill="current"/>
<path d="M47.9995 73.5767C45.9826 73.5767 44.3457 71.9398 44.3457 69.9229V26.0767C44.3457 24.0597 45.9826 22.4229 47.9995 22.4229C50.0165 22.4229 51.6534 24.0597 51.6534 26.0767V69.9229C51.6534 71.9398 50.0165 73.5767 47.9995 73.5767Z" fill="current"/>
</svg>
