<svg width="20" height="20" viewBox="0 0 20 20" fill="none" xmlns="http://www.w3.org/2000/svg">
<path d="M10 0C4.47721 0 0 4.47721 0 10C0 15.5228 4.47721 20 10 20C15.5228 20 20 15.5228 20 10C20 4.47721 15.5228 0 10 0ZM15.6958 11.5033H11.5033V15.6956C11.5033 16.5258 10.8302 17.1988 10 17.1988C9.16977 17.1988 8.49674 16.5258 8.49674 15.6956V11.5033H4.30419C3.47395 11.5033 2.80093 10.8302 2.80093 10C2.80093 9.16977 3.47395 8.49674 4.30419 8.49674H8.49651V4.30419C8.49651 3.47395 9.16954 2.80093 9.99977 2.80093C10.83 2.80093 11.503 3.47395 11.503 4.30419V8.49651H15.6953C16.5256 8.49651 17.1986 9.16954 17.1986 9.99977C17.1986 10.83 16.526 11.5033 15.6958 11.5033Z" fill="#A7B1C0"/>
</svg>
