<svg width="30" height="30" viewBox="0 0 77 96" fill="current" xmlns="http://www.w3.org/2000/svg">
<path d="M40.3003 24.125H36.0003C35.1003 24.125 34.3003 24.925 34.3003 25.825V29.425C28.8003 30.525 24.9003 35.625 25.5003 41.425C26.0003 47.025 31.1003 51.425 37.0003 51.425H39.8003C40.8003 51.425 41.7003 51.825 42.3003 52.525C43.0003 53.225 43.3003 54.225 43.2003 55.125C43.0003 56.825 41.4003 58.125 39.6003 58.125H35.8003C34.8003 58.125 34.0003 57.425 33.7003 56.425C33.5003 55.625 32.8003 55.125 32.0003 55.125H27.7003C27.2003 55.125 26.7003 55.325 26.4003 55.725C26.1003 56.025 25.9003 56.525 26.0003 57.025C26.4003 61.525 29.9003 65.025 34.3003 65.725V69.225C34.3003 70.125 35.1003 70.925 36.0003 70.925H40.3003C41.2003 70.925 42.0003 70.125 42.0003 69.225V65.525C46.8003 64.425 50.4003 60.525 50.8003 55.825C51.1003 52.625 50.1003 49.625 48.0003 47.225C45.9003 44.925 42.9003 43.625 39.8003 43.625H36.6003C35.6003 43.625 34.7003 43.225 34.1003 42.525C33.4003 41.825 33.1003 40.825 33.2003 39.925C33.4003 38.225 35.0003 36.925 36.8003 36.925H40.6003C41.6003 36.925 42.4003 37.625 42.7003 38.625C42.9003 39.425 43.6003 39.925 44.4003 39.925H48.7003C49.2003 39.925 49.7003 39.725 50.0003 39.325C50.3003 38.925 50.5003 38.525 50.4003 38.025C49.9003 33.525 46.5003 30.025 42.1003 29.325V25.825C42.0003 24.925 41.3003 24.125 40.3003 24.125Z" fill="current"/>
<path d="M75.2998 11.925L64.4998 1.125C62.9998 -0.375 60.5998 -0.375 59.1998 1.125C57.6998 2.625 57.6998 5.025 59.1998 6.425L63.4998 10.725H17.0998C14.9998 10.725 13.2998 12.425 13.2998 14.525C13.2998 16.625 14.9998 18.325 17.0998 18.325H63.4998L59.1998 22.625C57.6998 24.125 57.6998 26.525 59.1998 27.925C59.8998 28.625 60.8998 29.025 61.8998 29.025C62.8998 29.025 63.7998 28.625 64.5998 27.925L75.3998 17.125C76.7998 15.725 76.7998 13.325 75.2998 11.925Z" fill="current"/>
<path d="M59.3 76.725H12.9L17.2 72.425C18.7 70.925 18.7 68.525 17.2 67.125C15.7 65.625 13.3 65.625 11.9 67.125L1.1 77.825C0.399999 78.525 0 79.525 0 80.525C0 81.525 0.399999 82.525 1.1 83.225L11.9 94.025C12.6 94.725 13.6 95.125 14.6 95.125C15.6 95.125 16.5 94.725 17.3 94.025C18.8 92.525 18.8 90.125 17.3 88.725L13 84.425H59.4C61.5 84.425 63.2 82.725 63.2 80.625C63.1 78.425 61.4 76.725 59.3 76.725Z" fill="current"/>
</svg>
