<svg width="30" height="30" viewBox="0 0 67 71" fill="current" xmlns="http://www.w3.org/2000/svg">
<path d="M57.5938 6.79279e-10H18.1875C17.7048 -8.99464e-06 17.2291 0.0893222 16.8 0.260564C16.3708 0.431806 16.0006 0.680009 15.7201 0.984532L0.563812 17.4345C0.392862 17.623 0.258815 17.8301 0.166022 18.049C0.135861 18.1183 0.129646 18.1908 0.108124 18.262C0.0575046 18.4126 0.0265115 18.5668 0.0156105 18.7223C0.0146101 18.7488 0 18.7735 0 18.8V63.45C0.00263172 65.3191 0.961566 67.1112 2.6664 68.4328C4.37124 69.7545 6.68275 70.498 9.09375 70.5H57.5938C60.0048 70.498 62.3163 69.7545 64.0211 68.4328C65.7259 67.1112 66.6849 65.3191 66.6875 63.45V7.05C66.6849 5.18085 65.7259 3.38884 64.0211 2.06715C62.3163 0.745461 60.0048 0.00204026 57.5938 6.79279e-10ZM21.2188 4.7V10.575C21.2164 12.1326 20.4172 13.6259 18.9966 14.7272C17.5759 15.8286 15.6497 16.4482 13.6406 16.45H8.92206L19.7475 4.7H21.2188ZM60.625 63.45C60.624 64.073 60.3043 64.6703 59.736 65.1108C59.1678 65.5513 58.3974 65.7992 57.5938 65.8H9.09375C8.29013 65.7992 7.51973 65.5513 6.95148 65.1108C6.38324 64.6703 6.06354 64.073 6.0625 63.45V21.15H13.6406C17.2571 21.1469 20.7244 20.0318 23.2816 18.0493C25.8389 16.0667 27.2773 13.3787 27.2812 10.575V4.7H57.5938C58.3974 4.70081 59.1678 4.94866 59.736 5.38919C60.3043 5.82973 60.624 6.42699 60.625 7.05V63.45Z" fill="current"/>
<path d="M30.3127 45.8252C30.4127 44.3528 29.7585 42.9094 28.4925 41.8092C27.2265 40.7089 25.4513 40.0408 23.553 39.9502H18.8849C18.7117 39.9502 18.1877 39.5337 18.1877 38.7752C18.1877 38.0167 18.7117 37.6002 18.8849 37.6002H26.3418C27.1457 37.6002 27.9167 37.3526 28.4852 36.9119C29.0537 36.4712 29.373 35.8735 29.373 35.2502C29.373 34.6269 29.0537 34.0292 28.4852 33.5885C27.9167 33.1478 27.1457 32.9002 26.3418 32.9002H24.2502V30.5502C24.2502 29.9269 23.9308 29.3292 23.3624 28.8885C22.7939 28.4478 22.0229 28.2002 21.219 28.2002C20.415 28.2002 19.644 28.4478 19.0755 28.8885C18.5071 29.3292 18.1877 29.9269 18.1877 30.5502V32.9614C16.4374 33.192 14.8557 33.9099 13.7395 34.9803C12.6233 36.0507 12.0493 37.4 12.1252 38.7752C12.0253 40.2476 12.6795 41.6909 13.9454 42.7912C15.2114 43.8915 16.9867 44.5596 18.8849 44.6502H23.553C23.7262 44.6502 24.2502 45.0667 24.2502 45.8252C24.2502 46.5837 23.7263 47.0002 23.553 47.0002H16.0962C15.2922 47.0002 14.5212 47.2478 13.9527 47.6885C13.3843 48.1292 13.0649 48.7269 13.0649 49.3502C13.0649 49.9735 13.3843 50.5712 13.9527 51.0119C14.5212 51.4526 15.2922 51.7002 16.0962 51.7002H18.1877V54.0502C18.1877 54.6735 18.5071 55.2712 19.0755 55.7119C19.644 56.1526 20.415 56.4002 21.219 56.4002C22.0229 56.4002 22.7939 56.1526 23.3624 55.7119C23.9308 55.2712 24.2502 54.6735 24.2502 54.0502V51.639C26.0006 51.4084 27.5822 50.6905 28.6984 49.6201C29.8146 48.5497 30.3886 47.2004 30.3127 45.8252Z" fill="current"/>
<path d="M51.5312 16.4502H33.3438C32.5398 16.4502 31.7688 16.6978 31.2003 17.1385C30.6319 17.5792 30.3125 18.1769 30.3125 18.8002C30.3125 19.4235 30.6319 20.0212 31.2003 20.4619C31.7688 20.9026 32.5398 21.1502 33.3438 21.1502H51.5312C52.3352 21.1502 53.1062 20.9026 53.6747 20.4619C54.2431 20.0212 54.5625 19.4235 54.5625 18.8002C54.5625 18.1769 54.2431 17.5792 53.6747 17.1385C53.1062 16.6978 52.3352 16.4502 51.5312 16.4502Z" fill="current"/>
<path d="M51.5312 25.8501H33.3438C32.5398 25.8501 31.7688 26.0977 31.2003 26.5384C30.6319 26.9791 30.3125 27.5768 30.3125 28.2001C30.3125 28.8234 30.6319 29.4211 31.2003 29.8618C31.7688 30.3025 32.5398 30.5501 33.3438 30.5501H51.5312C52.3352 30.5501 53.1062 30.3025 53.6747 29.8618C54.2431 29.4211 54.5625 28.8234 54.5625 28.2001C54.5625 27.5768 54.2431 26.9791 53.6747 26.5384C53.1062 26.0977 52.3352 25.8501 51.5312 25.8501Z" fill="current"/>
<path d="M51.5312 35.25H39.4062C38.6023 35.25 37.8313 35.4976 37.2628 35.9383C36.6944 36.379 36.375 36.9767 36.375 37.6C36.375 38.2233 36.6944 38.821 37.2628 39.2617C37.8313 39.7024 38.6023 39.95 39.4062 39.95H51.5312C52.3352 39.95 53.1062 39.7024 53.6747 39.2617C54.2431 38.821 54.5625 38.2233 54.5625 37.6C54.5625 36.9767 54.2431 36.379 53.6747 35.9383C53.1062 35.4976 52.3352 35.25 51.5312 35.25Z" fill="current"/>
<path d="M51.5312 44.6499H39.4062C38.6023 44.6499 37.8313 44.8975 37.2628 45.3382C36.6944 45.7789 36.375 46.3766 36.375 46.9999C36.375 47.6232 36.6944 48.2209 37.2628 48.6616C37.8313 49.1023 38.6023 49.3499 39.4062 49.3499H51.5312C52.3352 49.3499 53.1062 49.1023 53.6747 48.6616C54.2431 48.2209 54.5625 47.6232 54.5625 46.9999C54.5625 46.3766 54.2431 45.7789 53.6747 45.3382C53.1062 44.8975 52.3352 44.6499 51.5312 44.6499Z" fill="current"/>
<path d="M51.5312 54.0498H33.3438C32.5398 54.0498 31.7688 54.2974 31.2003 54.7381C30.6319 55.1788 30.3125 55.7765 30.3125 56.3998C30.3125 57.0231 30.6319 57.6208 31.2003 58.0615C31.7688 58.5022 32.5398 58.7498 33.3438 58.7498H51.5312C52.3352 58.7498 53.1062 58.5022 53.6747 58.0615C54.2431 57.6208 54.5625 57.0231 54.5625 56.3998C54.5625 55.7765 54.2431 55.1788 53.6747 54.7381C53.1062 54.2974 52.3352 54.0498 51.5312 54.0498Z" fill="current"/>
</svg>
